<svg width="51" height="51" viewBox="0 0 51 51" fill="none" xmlns="http://www.w3.org/2000/svg">
<g clip-path="url(#clip0)" filter="url(#filter0_d)">
<path d="M38.678 47.803C39.214 48.34 40.792 47.633 41.329 47.096L42.213 46.212C42.75 45.675 43.457 44.097 42.92 43.56L29.629 30.947L26.154 34.608L38.678 47.803Z" fill="white"/>
<path d="M16.639 18.616C18.368 15.609 17.454 11.964 14.731 9.24101C11.513 6.02401 4.565 2.87701 1.348 6.09501C-1.87 9.31301 1.277 16.261 4.494 19.478C7.165 22.149 10.724 23.081 13.699 21.482L19.997 28.12L23.324 24.963L16.639 18.616Z" fill="white"/>
<path d="M33.012 18.523L6.631 43.56C6.094 44.097 6.801 45.675 7.338 46.212L8.222 47.096C8.624 47.498 9.608 47.994 10.303 47.994C10.537 47.994 10.739 47.936 10.874 47.803L36.003 21.324C36.705 21.669 37.44 21.864 38.184 21.931C40.413 22.135 42.737 21.158 44.606 19.289C50.942 12.954 52.079 11.559 50.134 9.11805L42.655 16.286C42.488 16.453 42.253 16.555 42.015 16.555C41.802 16.555 41.606 16.474 41.461 16.328L41.261 16.129C41.115 15.983 41.035 15.786 41.035 15.574C41.036 15.338 41.137 15.103 41.311 14.928L48.1 6.96305C47.94 6.80305 47.787 6.65005 47.615 6.47805C47.324 6.18705 47.053 5.91505 46.797 5.65605L38.802 12.476C38.656 12.624 38.421 12.725 38.185 12.725C37.972 12.725 37.776 12.644 37.631 12.498L37.431 12.299C37.285 12.153 37.205 11.956 37.205 11.744C37.206 11.508 37.307 11.273 37.481 11.098L44.613 3.65605C42.312 1.98405 40.914 3.37805 34.802 9.48905C32.769 11.522 31.792 14.093 32.243 16.492C32.377 17.191 32.629 17.872 33.012 18.523Z" fill="white"/>
</g>
<defs>
<filter id="filter0_d" x="0" y="0" width="50.998" height="51.998" filterUnits="userSpaceOnUse" color-interpolation-filters="sRGB">
<feFlood flood-opacity="0" result="BackgroundImageFix"/>
<feColorMatrix in="SourceAlpha" type="matrix" values="0 0 0 0 0 0 0 0 0 0 0 0 0 0 0 0 0 0 127 0"/>
<feOffset dy="1"/>
<feColorMatrix type="matrix" values="0 0 0 0 0 0 0 0 0 0 0 0 0 0 0 0 0 0 0.25 0"/>
<feBlend mode="normal" in2="BackgroundImageFix" result="effect1_dropShadow"/>
<feBlend mode="normal" in="SourceGraphic" in2="effect1_dropShadow" result="shape"/>
</filter>
<clipPath id="clip0">
<rect width="50.998" height="50.998" fill="white"/>
</clipPath>
</defs>
</svg>
