<svg width="26" height="26" viewBox="0 0 26 26" fill="none" xmlns="http://www.w3.org/2000/svg">
<path d="M12.7704 6.46094C9.15017 6.46094 6.21935 9.37167 6.21935 12.96C6.21935 16.5514 9.15337 19.459 12.7704 19.459C16.3905 19.459 19.3214 16.5483 19.3214 12.96C19.3214 9.36851 16.3874 6.46094 12.7704 6.46094ZM12.7704 17.1783C10.4204 17.1783 8.51826 15.2902 8.51826 12.96C8.51826 10.6297 10.4214 8.74161 12.7704 8.74161C15.1193 8.74161 17.0225 10.6297 17.0225 12.96C17.0235 15.2902 15.1203 17.1783 12.7704 17.1783Z" fill="white"/>
<path d="M18.0299 0.379367C15.681 0.270662 9.86293 0.275939 7.51189 0.379367C5.44594 0.475408 3.62362 0.970386 2.15448 2.42788C-0.30082 4.86372 0.0130076 8.14599 0.0130076 12.9596C0.0130076 17.8862 -0.263586 21.0925 2.15448 23.4914C4.61935 25.9357 7.97571 25.6159 12.7704 25.6159C17.6895 25.6159 19.3873 25.619 21.1267 24.951C23.4915 24.0402 25.2766 21.9431 25.4511 18.1764C25.5617 15.8451 25.5554 10.0742 25.4511 7.74178C25.2405 3.29541 22.8352 0.598889 18.0299 0.379367ZM21.7479 21.8798C20.1384 23.4766 17.9054 23.3341 12.7395 23.3341C7.4204 23.3341 5.28743 23.4122 3.73106 21.864C1.93852 20.0941 2.26299 17.2519 2.26299 12.9427C2.26299 7.11171 1.6598 2.91231 7.55869 2.61257C8.914 2.56508 9.31293 2.54925 12.7246 2.54925L12.7725 2.58091C18.4416 2.58091 22.8894 1.992 23.1564 7.84309C23.2171 9.17816 23.2309 9.57921 23.2309 12.9586C23.2298 18.1743 23.3298 20.303 21.7479 21.8798Z" fill="white"/>
<path d="M19.5809 7.72266C20.4264 7.72266 21.1118 7.04278 21.1118 6.2041C21.1118 5.36543 20.4264 4.68555 19.5809 4.68555C18.7355 4.68555 18.0501 5.36543 18.0501 6.2041C18.0501 7.04278 18.7355 7.72266 19.5809 7.72266Z" fill="white"/>
</svg>
