<svg width="205" height="76" viewBox="0 0 205 76" fill="none" xmlns="http://www.w3.org/2000/svg">
<g clip-path="url(#clip0)">
<path d="M147.55 75.9197C147.55 75.9598 147.55 75.9598 147.55 76C147.267 76 146.983 76 146.66 76C146.66 75.9598 146.66 75.9598 146.66 75.9197C146.983 75.6787 147.267 75.6787 147.55 75.9197Z" fill="#E4DFF1"/>
<path d="M204.999 49.7294H204.918C204.758 49.5687 204.758 49.408 204.918 49.2473C204.958 49.2473 204.958 49.2473 204.999 49.2473C204.999 49.408 204.999 49.5687 204.999 49.7294Z" fill="#D8D0EB"/>
<path d="M15.0908 27.6364C15.0908 14.7822 23.9106 3.73572 36.5335 0.723037C51.5838 -2.85202 67.0387 6.78858 70.1135 21.852C72.015 31.2114 69.628 39.4461 63.1548 46.556C62.6288 47.1184 62.6288 47.0782 62.1433 46.5159C59.3922 43.3023 56.1151 40.7315 52.1502 39.0444C47.2953 37.0359 42.3594 36.8753 37.3426 38.3615C35.7243 38.8435 34.1465 39.3256 32.5282 39.8076C32.2045 39.8879 32.2045 40.0084 32.4068 40.2495C33.2159 41.2135 34.0251 42.1776 34.8343 43.1416C35.603 44.1057 36.2907 45.1099 36.6144 46.315C36.9381 47.4397 36.8167 48.5243 36.3717 49.6089C35.8052 51.055 34.9152 52.3002 33.7824 53.3848C33.5396 53.5856 33.3778 53.5454 33.135 53.4651C26.1358 50.7738 20.9977 46.1142 17.7206 39.4059C15.9404 35.7907 15.0908 31.7738 15.0908 27.6364Z" fill="#FEC200"/>
<path d="M80.673 56.8795C77.4768 60.9366 73.7547 64.3911 69.4257 67.2029C61.5364 72.3848 52.8784 75.0359 43.4113 75.1564C24.032 75.3974 7.60608 64.1099 0 48.8055C0.202289 48.8055 0.364121 48.926 0.525952 49.0063C3.43892 50.3721 5.98776 52.3002 8.45569 54.3488C11.7328 57.0401 15.2931 59.2494 19.3793 60.5349C23.6274 61.8604 27.9159 62.0613 32.0831 60.2938C36.8976 58.2854 40.2151 54.8308 41.5502 49.7294C42.1976 47.3594 41.9953 45.0296 40.5792 42.9006C40.3769 42.5793 40.6197 42.6194 40.7815 42.5793C43.0472 42.1374 45.2724 42.2177 47.4975 42.7399C51.5433 43.704 54.8204 45.8731 57.612 48.8456C59.3517 50.6533 60.7273 52.7421 62.0219 54.871C62.6288 55.8351 63.2761 56.7991 63.9639 57.7632C65.7845 60.334 68.2524 61.2579 71.3677 60.7759C74.6448 60.2537 77.6386 59.0084 80.3089 57.0401C80.3898 56.9598 80.4302 56.8393 80.673 56.8795Z" fill="#1FB3FE"/>
<path d="M85.366 21.2093C86.6202 21.0888 87.308 21.9725 87.6721 23.1374C88.0767 24.5433 88.4004 25.9492 88.7645 27.3552C89.0477 28.4799 89.25 29.6046 89.6546 30.6892C90.221 32.2558 90.4233 33.9429 91.192 35.4693C91.4347 35.9514 91.6775 36.4334 92.0011 36.8351C92.6484 37.6786 93.1744 37.6786 93.8217 36.8752C94.5095 36.0317 95.0355 35.0676 95.3591 34.0634C95.966 32.2558 96.6133 30.4883 97.2202 28.7209C97.8675 26.833 98.3935 24.945 99.0812 23.0972C99.8499 21.0486 100.7 19 101.751 17.0317C104.138 12.5729 107.699 9.56023 112.675 8.39532C115.548 7.71245 118.339 8.0338 120.969 9.35938C122.587 10.1628 123.841 11.408 124.893 12.8541C125.5 13.6575 125.136 14.9027 124.246 15.5053C123.437 16.0275 122.264 15.8266 121.697 14.9831C119.957 12.4122 117.449 11.6089 114.496 11.9704C111.987 12.2516 109.762 13.3763 107.901 15.0232C107.375 15.5053 106.89 16.0275 106.485 16.5898C104.907 18.759 103.855 21.1691 103.127 23.6998C103.006 24.1416 102.803 24.6237 102.642 25.0655C101.63 27.5962 101.064 30.2473 100.133 32.778C99.0003 35.9915 97.908 39.1649 96.8561 42.4186C96.411 43.7442 95.7232 44.7484 94.469 45.2706C93.2553 45.7928 92.0011 45.8731 90.7874 45.3911C89.4118 44.8689 88.9668 43.6237 88.5622 42.3784C87.7126 39.6469 87.2271 36.7949 86.337 34.0634C85.5279 31.6131 84.9615 29.0824 84.4355 26.5919C84.3141 25.9492 84.0309 25.3065 83.7882 24.6638C83.505 23.9408 83.2622 23.2579 83.5454 22.4947C83.9095 21.5708 84.3546 21.2093 85.366 21.2093Z" fill="#330098"/>
<path d="M132.864 45.6321C129.465 45.3108 126.107 45.5919 122.79 45.5518C122.466 45.5518 122.183 45.5518 121.859 45.5116C120.524 45.3108 119.877 44.5475 119.796 43.1818C119.674 41.1733 119.755 39.1649 119.836 37.1564C119.877 35.8308 119.877 34.5053 119.796 33.1797C119.715 31.7738 119.917 30.408 119.958 29.0021C119.958 28.3594 119.917 27.7167 119.877 27.074C119.877 25.9894 119.998 24.8647 120.039 23.7801C120.079 23.1776 120.039 22.575 120.281 21.9725C120.807 20.7674 121.616 20.4059 122.871 20.8076C123.72 21.0888 124.206 21.6913 124.246 22.575C124.408 25.1057 124.287 27.6363 124.125 30.167C124.003 31.7336 123.882 33.26 124.044 34.8266C124.125 35.4291 124.125 36.0317 124.044 36.5941C123.801 38.964 125.541 40.611 127.442 41.1332C128.292 41.3742 129.182 41.4144 130.072 41.4144C131.731 41.3742 133.39 41.4144 135.048 41.4545C136.141 41.4947 136.586 41.9366 136.788 42.9809C136.869 43.5031 136.829 43.9852 136.707 44.4672C136.545 45.1099 136.06 45.3911 135.453 45.5116C135.008 45.5919 134.563 45.5919 134.118 45.5919C133.673 45.6321 133.228 45.6321 132.864 45.6321Z" fill="#330098"/>
<path d="M145.689 26.2304C145.729 28.3192 145.486 30.408 145.365 32.4567C145.284 33.7421 145.567 35.0275 145.486 36.3129C145.486 36.7146 145.446 37.0761 145.486 37.4778C145.689 39.4059 146.862 40.5307 148.602 41.1734C149.532 41.4947 150.503 41.5751 151.515 41.5349C153.173 41.4947 154.873 41.5349 156.572 41.5751C157.745 41.6152 158.231 42.2178 158.312 43.3425C158.312 43.4228 158.312 43.5032 158.312 43.5835C158.312 45.0698 157.745 45.6723 156.208 45.6723C154.428 45.6723 152.647 45.5518 150.867 45.5116C148.602 45.4715 146.336 45.6723 144.07 45.592C143.706 45.592 143.342 45.592 142.978 45.4715C141.886 45.1903 141.238 44.4271 141.198 43.3023C141.198 41.7759 141.077 40.2495 141.157 38.6829C141.279 36.8753 141.319 35.1078 141.198 33.3002C141.077 32.0148 141.279 30.7294 141.319 29.4038C141.36 28.5603 141.238 27.7167 141.238 26.8731C141.279 25.9091 141.319 24.9049 141.4 23.9006C141.481 23.2178 141.36 22.4947 141.724 21.852C142.25 20.8478 142.654 20.6068 143.868 20.8076C144.839 20.9281 145.486 21.5307 145.608 22.4545C145.81 23.6998 145.689 24.9852 145.689 26.2304Z" fill="#330098"/>
<path d="M115.184 23.5391C114.941 25.5877 115.143 27.6364 115.022 29.685C114.86 31.9345 115.143 34.1839 114.981 36.4736C114.9 37.6787 114.9 38.8837 114.819 40.0888C114.738 41.0127 114.819 41.8964 114.941 42.8203C114.981 43.222 114.981 43.6639 114.86 44.0655C114.577 45.1099 113.606 45.6723 112.392 45.4313C110.935 45.1501 110.531 44.7886 110.652 43.222C110.733 42.0571 110.733 40.852 110.774 39.6871C110.814 38.1205 110.774 36.5539 110.814 34.9873C110.855 33.7822 110.895 32.5772 110.733 31.3721C110.693 31.0507 110.814 30.7294 110.814 30.408C110.814 28.9619 110.733 27.5159 110.814 26.0296C110.895 24.8647 110.895 23.6998 110.935 22.5349C110.976 21.7717 111.461 21.1691 112.23 21.0486C112.675 20.9683 113.12 20.9683 113.565 21.0085C114.374 21.129 114.819 21.6512 115.022 22.3742C115.143 22.7759 115.184 23.1374 115.184 23.5391Z" fill="#330098"/>
<path d="M149.613 57.1607C149.613 60.0529 149.33 62.704 149.411 65.3552C149.451 65.9577 149.249 66.4799 148.642 66.7611C147.995 67.0825 147.307 67.0423 146.7 66.7209C146.377 66.5201 146.336 66.1987 146.296 65.8372C146.255 64.4313 146.336 63.0254 146.336 61.6194C146.336 59.4905 146.579 57.4017 146.377 55.2727C146.336 54.5497 146.417 53.8668 146.457 53.1438C146.457 52.7019 146.296 52.3805 145.972 52.1395C145.486 51.7378 144.92 51.4566 144.232 51.4566C143.585 51.4566 142.978 51.4566 142.331 51.4566C141.077 51.4968 140.591 51.1755 140.389 49.9302C140.227 49.1268 141.077 48.2029 141.926 48.2029C143.909 48.2029 145.891 48.3636 147.873 48.2833C150.099 48.2029 152.364 48.2431 154.589 48.3636C155.601 48.4038 156.127 49.1268 156.046 50.1712C155.965 51.0951 155.237 51.6575 154.266 51.4968C153.335 51.3361 152.405 51.3763 151.474 51.4566C150.503 51.537 149.775 52.3404 149.735 53.3446C149.694 54.7104 149.492 56.0359 149.613 57.1607Z" fill="#330098"/>
<path d="M181.939 66.6807C180.483 66.6807 179.066 66.6807 177.61 66.6807C177.408 66.6807 177.205 66.6807 176.963 66.6807C175.87 66.6004 175.223 65.9577 175.183 64.833C175.142 63.186 175.183 61.5391 175.223 59.8922C175.263 57.8034 175.223 55.7146 175.263 53.6659C175.304 52.3404 175.385 50.9746 175.385 49.649C175.385 49.4884 175.425 49.3277 175.425 49.167C175.628 48.0824 176.113 47.7209 177.165 47.8012C178.055 47.8816 178.581 48.444 178.621 49.408C178.662 50.8943 178.662 52.3404 178.581 53.8266C178.541 54.7103 178.419 55.6342 178.379 56.518C178.298 57.8837 178.46 59.2896 178.5 60.6554C178.541 61.8203 179.309 62.6237 180.361 63.1057C181.089 63.4672 181.858 63.6279 182.667 63.5877C183.962 63.5877 185.216 63.5877 186.511 63.5877C188.21 63.5877 188.493 64.5116 188.129 65.9577C188.048 66.3594 187.684 66.5602 187.279 66.6807C186.875 66.8013 186.43 66.7611 186.025 66.7611C184.65 66.7611 183.274 66.7611 181.899 66.7611C181.939 66.7209 181.939 66.7209 181.939 66.6807Z" fill="#330098"/>
<path d="M159.08 8.59618C159.647 8.55601 160.173 8.75686 160.618 9.03804C160.78 9.15855 160.941 9.27906 160.739 9.43973C160.537 9.56024 160.577 10.0824 160.132 9.84143C159.728 9.60041 159.283 9.43973 158.797 9.52007C158.473 9.56024 158.15 9.64058 158.109 10.0021C158.069 10.4038 158.433 10.444 158.676 10.5243C159.121 10.6448 159.566 10.7251 160.011 10.8457C160.78 11.0867 161.144 11.5687 161.144 12.2917C161.103 13.0148 160.658 13.4968 159.889 13.6575C158.999 13.8583 158.15 13.6977 157.381 13.1755C157.179 13.055 157.057 12.9344 157.26 12.7336C157.422 12.5729 157.422 12.0909 157.867 12.3721C158.231 12.6131 158.595 12.7738 159.04 12.8139C159.283 12.8541 159.485 12.8139 159.687 12.7336C159.93 12.6533 160.132 12.4524 160.132 12.1712C160.132 11.8901 159.889 11.7695 159.647 11.6892C159.202 11.5687 158.716 11.4884 158.271 11.3679C157.381 11.1268 157.017 10.6046 157.098 9.80126C157.179 9.11838 157.745 8.67652 158.635 8.59618C158.838 8.59618 158.959 8.59618 159.08 8.59618Z" fill="#330099"/>
<path d="M149.087 10.3636C149.087 10.8055 149.087 11.2474 149.087 11.649C149.128 12.3721 149.573 12.814 150.26 12.814C150.948 12.814 151.393 12.3319 151.434 11.6089C151.434 10.7252 151.474 9.8816 151.434 8.99788C151.434 8.59619 151.636 8.59619 151.919 8.63636C152.202 8.63636 152.445 8.59619 152.445 9.03805C152.405 9.8816 152.445 10.7252 152.445 11.5687C152.405 12.8541 151.596 13.6575 150.301 13.6575C149.006 13.6575 148.197 12.8541 148.197 11.5285C148.197 10.6448 148.197 9.80127 148.197 8.91755C148.197 8.55602 148.399 8.59619 148.642 8.59619C148.844 8.63636 149.209 8.43552 149.168 8.91755C149.087 9.43974 149.087 9.92177 149.087 10.3636Z" fill="#330099"/>
<path d="M204.919 49.2072C204.717 48.2431 204.272 47.7611 203.301 47.6004C202.451 47.4397 201.804 47.8013 201.318 48.6046C201.076 49.0063 200.833 49.408 200.55 49.7696C198.891 51.6977 196.706 52.4207 194.238 52.3002C192.094 52.2199 190.192 51.4567 188.372 50.3721C187.279 49.7294 186.268 48.926 185.54 47.8816C183.962 45.5518 182.748 42.981 181.818 40.37C180.523 36.7949 179.552 33.1395 178.176 29.6046C177.57 28.1184 177.125 26.592 176.396 25.1459C175.749 23.9006 175.021 22.6956 174.414 21.4101C174.252 21.0486 174.009 20.7273 173.605 20.5264C172.512 20.0444 171.137 20.2854 170.287 21.129C169.963 21.4503 169.721 21.7717 169.518 22.1734C168.912 23.5391 168.345 24.9049 167.86 26.3108C167.091 28.4799 166.484 30.7294 165.554 32.8583C165.149 33.7822 164.947 34.7865 164.663 35.7505C164.057 37.7188 163.531 39.6871 162.883 41.6152C162.641 42.2981 162.276 42.9408 162.317 43.704C162.357 44.3467 162.641 44.7484 163.247 44.9493C163.773 45.1501 164.34 45.1903 164.866 45.1099C165.392 45.0296 165.918 44.8287 166.12 44.2664C166.646 43.0211 167.01 41.7759 167.334 40.4905C167.819 38.723 169.357 37.759 171.177 38.1205C172.553 38.4017 173.807 38.9641 175.183 39.2452C176.639 39.5666 177.448 40.5307 177.893 41.8562C178.015 42.2178 178.096 42.5793 178.257 42.9006C178.824 43.8647 179.309 44.8689 179.795 45.8731C182.586 51.4165 186.875 54.9915 193.186 55.8351C197.475 56.3975 201.076 54.9915 203.827 51.6173C204.312 51.0148 204.838 50.3721 204.96 49.5285C204.919 49.5687 204.919 49.408 204.919 49.2072ZM174.212 35.5898C173.2 35.389 172.067 35.1078 171.096 34.3848C170.247 33.7822 170.044 32.8583 170.368 31.8541C170.611 31.1712 170.773 30.4884 170.975 29.7653C171.137 29.1628 171.42 28.6406 171.784 28.1586C172.148 27.7167 172.512 27.7167 172.957 28.0782C173.241 28.3192 173.524 28.6406 173.645 29.0021C174.05 30.2875 174.576 31.5729 174.98 32.8583C175.102 33.26 175.223 33.6617 175.385 34.0233C175.83 34.9873 175.385 35.5898 174.212 35.5898Z" fill="#330098"/>
<path d="M154.67 69.8139C154.347 69.3721 153.659 69.2516 153.052 69.4123C152.648 69.5328 152.405 69.8541 152.203 70.2156C151.393 71.5814 150.22 72.5053 148.602 72.8266C145.203 73.5095 141.522 71.7421 139.58 68.9302C137.921 66.5201 136.869 63.7886 135.696 61.1374C135.251 60.093 135.291 59.129 135.979 58.1649C137.112 56.5581 137.516 54.7505 137.314 52.7822C137.152 51.3361 136.748 50.0106 135.493 49.0867C134.725 48.5243 133.875 48.1226 132.904 47.9218C131.003 47.5201 129.101 47.5602 127.2 47.6406C126.552 47.6807 125.986 47.9218 125.46 48.3235C125.177 48.5243 124.934 48.8055 124.893 49.167C124.813 49.649 124.732 50.1311 124.732 50.6533C124.651 52.4207 124.813 54.1881 124.732 55.9556C124.691 56.9598 124.813 57.964 124.732 58.9683C124.529 61.2177 124.651 63.4672 124.691 65.7569C124.691 65.9979 124.772 66.1586 124.934 66.3192C125.419 66.8816 126.107 67.0423 126.714 66.8013C127.361 66.5602 127.726 65.9577 127.685 65.1945C127.645 64.3509 127.564 63.5074 128.13 62.7843C129.425 61.0571 131.084 60.6152 132.661 62.3023C132.783 62.4228 132.864 62.6237 132.985 62.7843C133.794 63.9894 134.239 65.3552 134.927 66.6004C135.574 67.8055 136.141 69.0507 136.95 70.1755C139.337 73.5898 142.493 75.6786 146.781 76C147.064 76 147.348 76 147.671 76C149.573 75.9197 151.272 75.2769 152.809 74.0719C153.699 73.389 154.387 72.5454 154.913 71.5814C155.075 70.9387 155.075 70.3361 154.67 69.8139ZM133.916 55.0317C133.713 55.4736 133.511 55.9154 133.228 56.3171C132.055 57.8837 130.638 58.0846 128.818 57.2812C128.251 57.0402 127.928 56.5581 127.847 55.9556C127.726 54.8309 127.604 53.7061 127.766 52.5412C128.009 51.0148 128.737 50.4524 130.396 50.4926C130.76 50.5328 131.164 50.5729 131.529 50.6533C133.754 50.9344 134.563 53.4651 133.916 55.0317Z" fill="#330098"/>
<path d="M120.16 54.3087C119.836 53.2643 119.472 52.26 118.663 51.4567C118.38 51.1755 118.096 50.9345 117.854 50.6131C115.588 48.0021 112.918 47.7209 110.086 48.5645C108.589 49.0063 107.173 49.7696 106.121 51.0951C105.069 52.4609 104.3 53.8668 103.855 55.5137C103.532 56.759 103.734 58.0444 103.774 59.2896C103.855 61.4588 104.543 63.3467 106.323 64.7526C106.364 64.7928 106.404 64.833 106.445 64.8731C107.78 66.2389 109.317 67.1628 111.34 66.8414C112.837 67.0824 114.172 66.6004 115.507 66.0782C115.75 65.9979 115.912 65.8372 116.114 65.7167C116.761 65.2347 117.328 64.6723 117.935 64.1903C118.946 63.3869 119.432 62.3023 119.877 61.2178C120.888 58.9281 120.929 56.6385 120.16 54.3087ZM117.53 58.888C117.53 59.611 117.085 60.2939 116.64 60.8964C116.114 61.5793 115.467 62.1416 114.819 62.7442C114.253 63.2262 113.687 63.4672 113.039 63.6681C111.664 64.1501 110.409 63.8689 109.277 62.9852C109.155 62.8647 108.993 62.7442 108.832 62.6638C107.496 61.9006 106.93 60.6554 106.89 59.1691C106.89 58.8478 106.849 58.5264 106.849 58.1247C106.687 56.3975 107.375 54.871 108.306 53.4249C109.115 52.1797 110.329 51.5772 111.825 51.4165C112.716 51.296 113.525 51.3763 114.293 51.6977C115.467 52.2199 116.235 53.0634 116.761 54.1882C117.49 55.6744 117.57 57.2812 117.53 58.888Z" fill="#330098"/>
<path d="M171.946 64.0296C171.703 63.5476 171.501 63.0656 171.299 62.5434C170.449 60.0529 169.802 57.5222 168.79 55.0719C168.183 53.5856 167.698 52.0592 166.97 50.6131C166.565 49.8097 166.039 49.1269 165.715 48.2833C165.513 47.7611 165.068 47.5201 164.542 47.4799C163.531 47.3996 162.681 47.6406 162.155 48.6047C161.75 49.3277 161.427 50.1311 161.144 50.9345C160.415 53.0634 159.647 55.2326 158.878 57.3615C158.15 59.4905 157.583 61.6596 156.896 63.7886C156.774 64.1501 156.612 64.5117 156.491 64.8732C156.289 65.7569 156.612 66.3594 157.624 66.4799C158.716 66.6406 159.202 66.3193 159.566 65.315C159.849 64.5117 160.132 63.7083 160.334 62.9049C160.699 61.6195 161.831 60.8964 163.167 61.1776C164.259 61.3785 165.27 61.8203 166.363 62.0613C167.253 62.2622 167.819 62.8246 168.183 63.6681C168.386 64.1903 168.588 64.7527 168.75 65.315C168.952 66.1184 169.518 66.5603 170.368 66.5603C171.946 66.4398 172.634 65.3954 171.946 64.0296ZM165.877 59.0085C164.866 58.9683 163.895 58.647 163.086 57.9641C162.762 57.6829 162.6 57.241 162.6 56.7188C162.924 55.7146 163.045 54.63 163.612 53.666C164.016 52.9831 164.421 52.9831 164.906 53.5856C165.068 53.7865 165.189 53.9873 165.27 54.1882C165.715 55.4334 166.079 56.6787 166.565 57.8837C166.808 58.5666 166.525 59.0487 165.877 59.0085Z" fill="#330098"/>
<path d="M100.821 50.8541C100.174 48.9661 98.6767 48.1628 96.8156 47.9218C94.6309 47.6004 92.4462 47.6807 90.2614 47.7209C88.9668 47.7611 88.1172 48.926 88.0767 49.7294C88.0362 50.8139 87.9958 51.8583 87.9958 52.9429C87.9553 56.7991 88.1981 60.6554 87.9553 64.5116C88.0362 64.9936 87.8744 65.556 88.1172 66.038C88.4408 66.7209 89.5736 66.9218 90.4233 66.5201C90.9088 66.279 91.0706 65.9577 91.0301 65.3953C90.9492 64.4313 90.9897 63.4672 91.7179 62.704C92.3248 62.0613 92.9721 61.4989 93.7813 61.1374C95.1973 60.5349 96.4515 59.6913 97.7866 58.9683C99.324 58.1649 100.295 56.8795 100.78 55.2325C101.104 54.2283 101.023 53.1839 101.064 52.1395C101.104 51.6575 100.983 51.2558 100.821 50.8541ZM97.7866 54.2283C97.5843 55.0317 97.1797 55.7146 96.4919 56.1966C95.5614 56.8393 94.5904 57.482 93.4171 57.6829C92.8103 57.8034 92.2034 57.723 91.7179 57.3213C91.3133 57.0401 91.0706 56.6786 91.111 56.1564C91.111 55.6342 91.111 55.112 91.111 54.5497C91.111 54.0676 91.111 53.5856 91.111 53.1036C91.0706 52.1797 91.5156 51.4566 92.3248 51.0549C93.8217 50.2917 95.3591 50.2114 96.8965 50.8139C97.6248 51.0951 97.9889 51.6977 97.9889 52.4609C97.9889 53.1036 97.9484 53.6659 97.7866 54.2283Z" fill="#330098"/>
<path d="M177.246 8.67653C176.639 8.63636 176.032 8.67653 175.425 8.63636C175.142 8.63636 175.061 8.7167 175.061 8.99788C175.061 9.72093 175.061 10.4038 175.061 11.1268C175.061 11.8499 175.061 12.5729 175.061 13.296C175.061 13.537 175.142 13.6575 175.385 13.6173C175.992 13.6173 176.599 13.6173 177.165 13.6173C178.581 13.537 179.471 12.6131 179.512 11.2072C179.552 9.72093 178.702 8.79704 177.246 8.67653ZM178.5 11.7696C178.338 12.3721 177.893 12.6934 177.286 12.7336C176.032 12.8139 176.032 12.8139 176.032 11.6089C176.032 11.4482 176.032 11.2474 176.032 11.0867C176.032 10.685 176.073 10.2833 176.032 9.8816C175.992 9.52008 176.154 9.43974 176.477 9.47991C176.599 9.47991 176.72 9.47991 176.801 9.47991C178.217 9.52008 178.905 10.4038 178.5 11.7696Z" fill="#330199"/>
<path d="M140.672 8.55601C139.256 8.55601 138.083 9.72091 138.083 11.1268C138.083 12.4926 139.256 13.6575 140.632 13.6977C142.048 13.6977 143.221 12.5328 143.261 11.1268C143.302 9.76108 142.128 8.55601 140.672 8.55601ZM140.712 12.8139C139.863 12.8139 139.054 12.0106 139.054 11.1268C139.054 10.2431 139.782 9.4799 140.672 9.43973C141.562 9.43973 142.331 10.1628 142.331 11.0867C142.331 12.0106 141.562 12.8139 140.712 12.8139Z" fill="#330098"/>
<path d="M131.974 8.67651C131.326 8.63634 130.679 8.67651 130.032 8.67651C129.789 8.67651 129.708 8.75685 129.708 8.99787C129.708 9.72091 129.708 10.4038 129.708 11.1268C129.708 11.8097 129.748 12.4926 129.708 13.2156C129.708 13.5771 129.829 13.6575 130.153 13.6575C130.598 13.6977 130.719 13.537 130.679 13.1353C130.638 12.9344 130.679 12.7336 130.679 12.5729C130.638 12.2917 130.719 12.1712 131.043 12.1712C131.367 12.2114 131.731 12.1712 132.054 12.1311C133.106 12.0106 133.713 11.408 133.713 10.4038C133.673 9.43973 132.985 8.71668 131.974 8.67651ZM132.742 10.6448C132.702 10.926 132.54 11.1268 132.297 11.2072C131.812 11.3678 131.326 11.2473 130.841 11.2875C130.679 11.2875 130.679 11.167 130.679 11.0465C130.679 10.8055 130.679 10.6046 130.679 10.3636C130.679 9.43973 130.679 9.43973 131.771 9.4799C132.459 9.52007 132.864 10.0021 132.742 10.6448Z" fill="#330199"/>
<path d="M188.493 13.4567C187.724 11.9302 186.915 10.3636 186.106 8.83721C185.985 8.55602 185.863 8.7167 185.782 8.87738C185.54 9.35941 185.297 9.84144 185.054 10.3235C184.569 11.2875 184.043 12.2516 183.557 13.2156C183.517 13.296 183.315 13.4567 183.517 13.5772C183.84 13.7378 184.447 13.537 184.569 13.1755C184.69 12.8943 184.852 12.7738 185.135 12.814C185.702 12.8541 186.227 12.814 186.794 12.814C186.956 12.814 187.158 12.7738 187.198 13.0148C187.36 13.7378 187.927 13.6575 188.453 13.5772C188.493 13.537 188.534 13.4968 188.493 13.4567ZM185.297 11.9704C185.54 11.4884 185.742 11.0465 185.985 10.5243C186.227 11.0465 186.43 11.4884 186.673 11.9704C186.227 12.0106 185.782 11.9704 185.297 11.9704Z" fill="#330099"/>
<path d="M170.328 13.3361C169.518 11.7695 168.75 10.2431 167.86 8.55601C166.97 10.2833 166.12 11.9302 165.27 13.5771C165.594 13.5771 165.796 13.5771 166.039 13.5771C166.201 13.5771 166.363 13.5771 166.403 13.3763C166.525 12.7336 167.01 12.7738 167.496 12.7738C167.86 12.7738 168.224 12.8139 168.547 12.7738C168.912 12.7336 169.154 12.8541 169.235 13.2156C169.316 13.4968 169.518 13.6173 169.802 13.5771C170.004 13.537 170.166 13.5771 170.409 13.5771C170.368 13.4566 170.368 13.4165 170.328 13.3361ZM167.172 11.9704C167.415 11.4884 167.617 11.0465 167.86 10.5243C168.102 11.0465 168.305 11.4884 168.547 11.9704C168.062 11.9704 167.657 11.9704 167.172 11.9704Z" fill="#330099"/>
</g>
<defs>
<clipPath id="clip0">
<rect width="205" height="76" fill="white"/>
</clipPath>
</defs>
</svg>
