<svg width="21" height="30" viewBox="0 0 21 30" fill="none" xmlns="http://www.w3.org/2000/svg">
<path d="M4.71242 5.62554C6.31636 5.62554 7.61661 4.36622 7.61661 2.81277C7.61661 1.25932 6.31636 0 4.71242 0C3.10848 0 1.80823 1.25932 1.80823 2.81277C1.80823 4.36622 3.10848 5.62554 4.71242 5.62554Z" fill="white"/>
<path d="M20.8379 17.3922C20.7096 14.1362 20.2815 10.9015 19.6369 7.70573C19.1286 5.1886 15.8816 5.50367 14.8861 7.31736C14.8375 7.37755 14.7919 7.44066 14.7503 7.51154C13.5924 9.49077 12.1749 11.2632 10.4206 12.7516C8.66672 11.2637 7.24921 9.49126 6.09034 7.51203C6.04322 7.43095 5.99109 7.36008 5.93596 7.29405C4.92245 5.50173 1.71199 5.19297 1.20724 7.6931C0.564151 10.8826 0.131078 14.107 0.00225895 17.3548C-0.0207982 17.9446 0.134085 18.4272 0.401247 18.8034C0.37418 18.9151 0.357639 19.0359 0.357639 19.1665C0.357639 22.0283 0.357639 24.8906 0.357639 27.7534C0.357639 29.6637 3.41471 29.6637 3.41471 27.7534C3.41471 25.0532 3.41471 22.3516 3.41471 19.652C4.34702 19.3602 5.11893 18.6087 5.16705 17.3922C5.23672 15.626 5.39963 13.8774 5.64875 12.137C6.6392 13.3269 7.74744 14.4143 8.981 15.4095C9.22661 16.0023 9.78299 16.4382 10.4201 16.3275C11.0571 16.4387 11.613 16.0023 11.8591 15.4095C13.0927 14.4143 14.2009 13.3269 15.1909 12.1365C15.4395 13.8653 15.6029 15.6013 15.6736 17.3553C15.7217 18.5747 16.4921 19.336 17.4249 19.6384C17.4249 22.3429 17.4249 25.0484 17.4249 27.7539C17.4249 29.6642 20.482 29.6642 20.482 27.7539C20.482 24.8916 20.482 22.0288 20.482 19.167C20.482 19.0432 20.469 18.9291 20.4449 18.8209C20.7085 18.45 20.8614 17.9757 20.8379 17.3922Z" fill="white"/>
<path d="M16.1287 5.62554C17.7326 5.62554 19.0329 4.36622 19.0329 2.81277C19.0329 1.25932 17.7326 0 16.1287 0C14.5247 0 13.2245 1.25932 13.2245 2.81277C13.2245 4.36622 14.5247 5.62554 16.1287 5.62554Z" fill="white"/>
</svg>
