<svg width="57" height="51" viewBox="0 0 57 51" fill="none" xmlns="http://www.w3.org/2000/svg">
<path d="M19.3424 26.2652C19.3798 25.6604 19.4173 25.0547 19.4972 24.4429C19.645 22.9923 19.9625 21.5359 20.287 20.119C20.4844 19.4123 20.6984 18.7143 20.9228 18.0318C21.2098 17.3656 21.4907 16.703 21.7708 16.0559C22.4048 14.7926 23.1138 13.6123 23.9599 12.6243C24.1609 12.3697 24.36 12.123 24.5549 11.8754C24.7775 11.6545 25.0003 11.4405 25.215 11.2265C25.6682 10.8201 26.0612 10.38 26.5136 10.0572C27.4154 9.39464 28.2132 8.76473 29.0254 8.3747C29.8083 7.94144 30.4796 7.56536 31.0849 7.35311C32.2713 6.87945 32.9445 6.64136 32.9445 6.64136C32.9445 6.64136 32.3704 7.09348 31.3668 7.82692C30.8484 8.1626 30.2988 8.6924 29.6446 9.23512C28.9627 9.75275 28.3453 10.4948 27.6112 11.206C27.2441 11.5693 26.959 12.0257 26.6119 12.4459C26.4431 12.6599 26.2701 12.8756 26.0916 13.0948C25.9473 13.3365 25.7977 13.5789 25.6463 13.8265C24.9984 14.7791 24.514 15.8974 24.0093 17.032C23.8023 17.6257 23.5928 18.228 23.3787 18.8362C23.2326 19.4686 23.0709 20.1079 22.8944 20.7448C22.6291 22.0536 22.3691 23.3886 22.2568 24.7613C22.1786 25.2592 22.1412 25.7614 22.0942 26.267C33.0887 26.2687 41.5983 26.2756 53.5053 26.2756C53.5453 25.7578 53.5679 25.2332 53.5679 24.7061C53.5679 14.7574 46.2601 6.56368 36.8565 5.47823C37.4636 4.91486 37.848 4.11577 37.848 3.22697C37.8515 1.51859 36.4564 0.13623 34.7378 0.13623C33.0174 0.13623 31.6207 1.51859 31.6207 3.22697C31.6207 4.11755 32.0034 4.91471 32.6122 5.47823C23.2093 6.56368 15.9034 14.7574 15.9034 24.7061C15.9034 25.2316 15.9225 25.7492 15.9617 26.2653C17.1229 26.2652 18.2439 26.2652 19.3424 26.2652Z" fill="white"/>
<path d="M57 27.4161H12.4757V31.313H57V27.4161Z" fill="white"/>
<path d="M38.7211 34.0791C36.4582 35.1697 28.5677 37.993 28.5677 37.993L19.2405 37.4133C19.2405 37.4133 24.5757 35.9412 26.6438 35.4805C28.7156 35.0214 27.8145 32.7039 26.669 32.7039C25.5237 32.7039 15.5415 33.1128 15.5415 33.1128L8.91315 35.4805L10.6674 46.4957C10.6674 46.4957 12.032 44.178 13.3932 44.178C14.7596 44.178 26.5943 44.4904 28.2007 44.178C29.8081 43.8621 39.598 37.2181 40.7704 36.4432C41.9376 35.6719 40.9929 32.9868 38.7211 34.0791Z" fill="white"/>
<path d="M0 36.6645V50.943L10.1552 49.0567L7.61469 35.3354L0 36.6645Z" fill="white"/>
</svg>
