<svg width="26" height="19" viewBox="0 0 26 19" fill="none" xmlns="http://www.w3.org/2000/svg">
<path d="M25.4248 2.81959L25.4573 3.02547C25.1431 1.94458 24.2949 1.11053 23.2169 0.806955L23.1942 0.801702C21.1673 0.268081 13.011 0.268081 13.011 0.268081C13.011 0.268081 4.87526 0.257576 2.82778 0.801702C1.7293 1.11053 0.879975 1.94458 0.571228 3.00342L0.565812 3.02547C-0.191429 6.86062 -0.196846 11.4689 0.599395 15.575L0.565812 15.367C0.879975 16.4479 1.72821 17.282 2.80612 17.5856L2.82887 17.5908C4.85359 18.1255 13.0121 18.1255 13.0121 18.1255C13.0121 18.1255 21.1467 18.1255 23.1953 17.5908C24.2949 17.282 25.1442 16.4479 25.4529 15.3891L25.4583 15.367C25.8028 13.5834 26 11.5309 26 9.43418C26 9.3575 26 9.27977 25.9989 9.20204C26 9.13061 26 9.04552 26 8.96044C26 6.86272 25.8028 4.81016 25.4248 2.81959ZM10.4089 13.0319V5.3711L17.1969 9.20729L10.4089 13.0319Z" fill="white"/>
</svg>
